<svg version="1.2" xmlns="http://www.w3.org/2000/svg" viewBox="0 0 1935 491" width="1935" height="491"><style>.a{fill:#9269fd}.b{fill:#212221}.c{fill:#634c9f}</style><path class="a" d="m252.1 393.9c32.6 0 61.8-9.8 87.9-29.3 26.1-19.5 43.9-44.6 53.7-75.2 10.4-31.9 9.4-64.8-2.9-98.6q-10.8-29.2-32.7-51.3-21.9-22-51.3-32.7c-33.9-12.4-67.1-13.3-99.6-2.9-29.9 9.8-54.7 27.7-74.2 53.7-19.5 26-29.3 55.3-29.3 87.9h-93.8c0-52.1 15.1-99.1 45.4-141.1 30.3-42 69.5-71.1 117.7-87.4 50.8-17.6 102.9-18.2 156.3-2 36.5 11.7 68.2 31.1 95.2 58.1 27 27 46.4 58.8 58.1 95.2 16.3 53.4 15.6 105.5-2 156.3-16.3 48.2-45.4 87.4-87.4 117.7-42 30.3-89 45.4-141.1 45.4zm-225.6-59.5v59.6h60.5v-59.6zm60.5 59.5v72.3h72.3v-72.3zm72.3-92.7v92.8h92.8v-92.8z"/><path class="b" d="m625.9 129.2h-107.6v-54.6h274.1v54.6h-108.2v320.1h-58.4v-320.1z"/><path class="b" d="m840.8 435.9c-21.6-12.5-37.8-29.3-48.7-50.3-10.9-21.1-16.3-44.6-16.3-70.7 0-24.6 5.1-47.2 15.3-67.7 10.2-20.5 25-36.8 44.4-49 19.4-12.1 42.6-18.2 69.3-18.2 35 0 62.8 10.3 83.5 30.8 20.7 20.5 31 47.9 31 82.2 0 9.3-1.1 19.3-3.2 30h-183q5.4 44.4 29.7 64.2 24.3 19.8 61.8 19.8c28.2 0 54.1-6.1 77.6-18.2l5.4 45.5c-28.6 13.6-58.2 20.3-88.9 20.3-30.3 0-56.3-6.2-77.9-18.7zm121.3-151c0-16.8-4.8-30.5-14.5-41.2-9.6-10.7-24.1-16.1-43.4-16.1-36.1 0-58.7 19.1-68 57.3z"/><path class="b" d="m1113.6 436.7c-20.7-12-36.3-28.3-46.8-49-10.5-20.7-15.8-43.9-15.8-69.6 0-26.4 5.2-50.1 15.5-70.9q15.4-31.3 47.1-49.5c21.1-12.1 46.9-18.2 77.6-18.2 27.5 0 51.4 5.4 71.7 16.1l-6.4 47.1c-20-10-41-15-63.2-15-27.1 0-48.1 7.9-62.9 23.8-14.8 15.9-22.2 37.7-22.2 65.6 0 27.1 7.4 48.9 22.2 65.3q22.2 24.6 62.4 24.6c22.5 0 43.9-5.5 64.2-16.6l6.4 46c-8.6 5.4-19.6 9.7-33.2 13.1-13.6 3.4-27.5 5.1-41.8 5.1-29.1 0-54.1-5.9-74.8-17.9z"/><path class="c" d="m1314.9 74.6h60l174.5 263.9v-263.9h58.9v374.7h-49.3l-185.8-279.4v279.4h-58.4v-374.7z"/><path class="b" d="m1720.4 436.2c-20.2-12.3-35.5-28.9-46-49.8-10.5-20.9-15.8-44-15.8-69.3 0-25.3 5.3-48.4 15.8-69.3 10.5-20.9 25.9-37.5 46-49.8 20.2-12.3 44-18.5 71.5-18.5 27.1 0 50.8 6.2 70.9 18.5 20.2 12.3 35.6 28.9 46.3 49.8 10.7 20.9 16.1 44 16.1 69.3 0 25.3-5.4 48.4-16.1 69.3-10.7 20.9-26.1 37.5-46.3 49.8-20.2 12.3-43.8 18.5-70.9 18.5-27.5-0.1-51.4-6.2-71.5-18.5zm127.6-53.3c13.2-16.1 19.8-38 19.8-65.8 0-27.8-6.6-49.8-19.8-65.8-13.2-16.1-31.9-24.1-56.2-24.1-24.3 0-43 8-56.2 24.1-13.2 16.1-19.8 38-19.8 65.8 0 27.8 6.6 49.8 19.8 65.8 13.2 16.1 31.9 24.1 56.2 24.1 24.3 0 43-8 56.2-24.1z"/></svg>